<mxfile host="Electron" modified="2023-12-28T18:05:02.030Z" agent="Mozilla/5.0 (Windows NT 10.0; Win64; x64) AppleWebKit/537.36 (KHTML, like Gecko) draw.io/22.1.2 Chrome/114.0.5735.289 Electron/25.9.4 Safari/537.36" etag="6PN7gT-gGAKo-IkjxznG" version="22.1.2" type="device">
  <diagram name="Page-1" id="2YBvvXClWsGukQMizWep">
    <mxGraphModel dx="936" dy="638" grid="1" gridSize="10" guides="1" tooltips="1" connect="1" arrows="1" fold="1" page="1" pageScale="1" pageWidth="1169" pageHeight="827" math="0" shadow="0">
      <root>
        <mxCell id="0" />
        <mxCell id="1" parent="0" />
        <mxCell id="rlRPjQ5b9loZFyzqeMn2-1" value="Gestor" style="shape=umlActor;verticalLabelPosition=bottom;verticalAlign=top;html=1;outlineConnect=0;" parent="1" vertex="1">
          <mxGeometry x="105" y="230" width="30" height="60" as="geometry" />
        </mxCell>
        <mxCell id="rlRPjQ5b9loZFyzqeMn2-2" value="Administrador" style="shape=umlActor;verticalLabelPosition=bottom;verticalAlign=top;html=1;outlineConnect=0;" parent="1" vertex="1">
          <mxGeometry x="105" y="410" width="30" height="60" as="geometry" />
        </mxCell>
        <mxCell id="rlRPjQ5b9loZFyzqeMn2-20" value="" style="edgeStyle=orthogonalEdgeStyle;rounded=0;orthogonalLoop=1;jettySize=auto;html=1;entryX=0;entryY=0.5;entryDx=0;entryDy=0;exitX=1;exitY=0;exitDx=0;exitDy=0;" parent="1" source="rlRPjQ5b9loZFyzqeMn2-7" target="rlRPjQ5b9loZFyzqeMn2-18" edge="1">
          <mxGeometry relative="1" as="geometry" />
        </mxCell>
        <mxCell id="rlRPjQ5b9loZFyzqeMn2-7" value="Analizar&lt;br&gt;Rese침as" style="ellipse;whiteSpace=wrap;html=1;" parent="1" vertex="1">
          <mxGeometry x="280" y="190" width="90" height="60" as="geometry" />
        </mxCell>
        <mxCell id="rlRPjQ5b9loZFyzqeMn2-8" value="Cambiar idioma" style="ellipse;whiteSpace=wrap;html=1;" parent="1" vertex="1">
          <mxGeometry x="280" y="330" width="90" height="60" as="geometry" />
        </mxCell>
        <mxCell id="rlRPjQ5b9loZFyzqeMn2-9" value="Administrar aplicaci칩n" style="ellipse;whiteSpace=wrap;html=1;" parent="1" vertex="1">
          <mxGeometry x="280" y="440" width="90" height="60" as="geometry" />
        </mxCell>
        <mxCell id="rlRPjQ5b9loZFyzqeMn2-12" value="" style="endArrow=classic;html=1;rounded=0;entryX=-0.056;entryY=0.528;entryDx=0;entryDy=0;entryPerimeter=0;" parent="1" target="rlRPjQ5b9loZFyzqeMn2-7" edge="1">
          <mxGeometry width="50" height="50" relative="1" as="geometry">
            <mxPoint x="140" y="250" as="sourcePoint" />
            <mxPoint x="300" y="110" as="targetPoint" />
          </mxGeometry>
        </mxCell>
        <mxCell id="rlRPjQ5b9loZFyzqeMn2-14" value="" style="endArrow=classic;html=1;rounded=0;entryX=0;entryY=0.5;entryDx=0;entryDy=0;" parent="1" source="rlRPjQ5b9loZFyzqeMn2-2" target="rlRPjQ5b9loZFyzqeMn2-9" edge="1">
          <mxGeometry width="50" height="50" relative="1" as="geometry">
            <mxPoint x="135" y="470" as="sourcePoint" />
            <mxPoint x="280" y="316" as="targetPoint" />
          </mxGeometry>
        </mxCell>
        <mxCell id="Z5fmT5UCpDkTC6VNb4EY-11" value="" style="edgeStyle=orthogonalEdgeStyle;rounded=0;orthogonalLoop=1;jettySize=auto;html=1;" edge="1" parent="1" source="rlRPjQ5b9loZFyzqeMn2-18" target="Z5fmT5UCpDkTC6VNb4EY-10">
          <mxGeometry relative="1" as="geometry" />
        </mxCell>
        <mxCell id="rlRPjQ5b9loZFyzqeMn2-18" value="Cargar&lt;br&gt;Rese침as" style="ellipse;whiteSpace=wrap;html=1;" parent="1" vertex="1">
          <mxGeometry x="450" y="110" width="90" height="60" as="geometry" />
        </mxCell>
        <mxCell id="rlRPjQ5b9loZFyzqeMn2-26" value="" style="endArrow=classic;html=1;rounded=0;entryX=-0.028;entryY=0.375;entryDx=0;entryDy=0;entryPerimeter=0;" parent="1" target="rlRPjQ5b9loZFyzqeMn2-8" edge="1">
          <mxGeometry width="50" height="50" relative="1" as="geometry">
            <mxPoint x="140" y="280" as="sourcePoint" />
            <mxPoint x="200" y="275" as="targetPoint" />
          </mxGeometry>
        </mxCell>
        <mxCell id="rlRPjQ5b9loZFyzqeMn2-27" value="" style="endArrow=classic;html=1;rounded=0;entryX=0.133;entryY=0.967;entryDx=0;entryDy=0;entryPerimeter=0;" parent="1" target="rlRPjQ5b9loZFyzqeMn2-7" edge="1">
          <mxGeometry width="50" height="50" relative="1" as="geometry">
            <mxPoint x="140" y="430" as="sourcePoint" />
            <mxPoint x="280" y="260" as="targetPoint" />
          </mxGeometry>
        </mxCell>
        <mxCell id="rlRPjQ5b9loZFyzqeMn2-28" value="" style="endArrow=classic;html=1;rounded=0;entryX=0;entryY=0.667;entryDx=0;entryDy=0;entryPerimeter=0;" parent="1" target="rlRPjQ5b9loZFyzqeMn2-8" edge="1">
          <mxGeometry width="50" height="50" relative="1" as="geometry">
            <mxPoint x="140" y="430" as="sourcePoint" />
            <mxPoint x="730" y="390" as="targetPoint" />
          </mxGeometry>
        </mxCell>
        <mxCell id="Z5fmT5UCpDkTC6VNb4EY-2" value="" style="edgeStyle=orthogonalEdgeStyle;rounded=0;orthogonalLoop=1;jettySize=auto;html=1;" edge="1" parent="1" source="rlRPjQ5b9loZFyzqeMn2-44" target="Z5fmT5UCpDkTC6VNb4EY-1">
          <mxGeometry relative="1" as="geometry" />
        </mxCell>
        <mxCell id="rlRPjQ5b9loZFyzqeMn2-44" value="Admiinistrar&lt;br&gt;Datasets" style="ellipse;whiteSpace=wrap;html=1;" parent="1" vertex="1">
          <mxGeometry x="420" y="390" width="90" height="60" as="geometry" />
        </mxCell>
        <mxCell id="Z5fmT5UCpDkTC6VNb4EY-7" value="" style="edgeStyle=orthogonalEdgeStyle;rounded=0;orthogonalLoop=1;jettySize=auto;html=1;" edge="1" parent="1" source="rlRPjQ5b9loZFyzqeMn2-45" target="Z5fmT5UCpDkTC6VNb4EY-6">
          <mxGeometry relative="1" as="geometry" />
        </mxCell>
        <mxCell id="rlRPjQ5b9loZFyzqeMn2-45" value="Administrar&lt;br&gt;Usuarios" style="ellipse;whiteSpace=wrap;html=1;" parent="1" vertex="1">
          <mxGeometry x="420" y="490" width="90" height="60" as="geometry" />
        </mxCell>
        <mxCell id="rlRPjQ5b9loZFyzqeMn2-46" value="" style="endArrow=classic;html=1;rounded=0;exitX=1;exitY=0;exitDx=0;exitDy=0;entryX=0;entryY=0.5;entryDx=0;entryDy=0;" parent="1" source="rlRPjQ5b9loZFyzqeMn2-9" target="rlRPjQ5b9loZFyzqeMn2-44" edge="1">
          <mxGeometry width="50" height="50" relative="1" as="geometry">
            <mxPoint x="680" y="440" as="sourcePoint" />
            <mxPoint x="730" y="390" as="targetPoint" />
          </mxGeometry>
        </mxCell>
        <mxCell id="rlRPjQ5b9loZFyzqeMn2-47" value="" style="endArrow=classic;html=1;rounded=0;exitX=1;exitY=1;exitDx=0;exitDy=0;entryX=0;entryY=0.5;entryDx=0;entryDy=0;" parent="1" source="rlRPjQ5b9loZFyzqeMn2-9" target="rlRPjQ5b9loZFyzqeMn2-45" edge="1">
          <mxGeometry width="50" height="50" relative="1" as="geometry">
            <mxPoint x="367" y="459" as="sourcePoint" />
            <mxPoint x="430" y="430" as="targetPoint" />
          </mxGeometry>
        </mxCell>
        <mxCell id="Z5fmT5UCpDkTC6VNb4EY-1" value="Crear&lt;br&gt;Datasets" style="ellipse;whiteSpace=wrap;html=1;" vertex="1" parent="1">
          <mxGeometry x="590" y="350" width="90" height="60" as="geometry" />
        </mxCell>
        <mxCell id="Z5fmT5UCpDkTC6VNb4EY-4" value="Borrar&lt;br&gt;Datasets" style="ellipse;whiteSpace=wrap;html=1;" vertex="1" parent="1">
          <mxGeometry x="590" y="420" width="90" height="60" as="geometry" />
        </mxCell>
        <mxCell id="Z5fmT5UCpDkTC6VNb4EY-5" value="" style="edgeStyle=orthogonalEdgeStyle;rounded=0;orthogonalLoop=1;jettySize=auto;html=1;exitX=0.956;exitY=0.733;exitDx=0;exitDy=0;exitPerimeter=0;entryX=0;entryY=0.5;entryDx=0;entryDy=0;" edge="1" parent="1" source="rlRPjQ5b9loZFyzqeMn2-44" target="Z5fmT5UCpDkTC6VNb4EY-4">
          <mxGeometry relative="1" as="geometry">
            <mxPoint x="520" y="430" as="sourcePoint" />
            <mxPoint x="600" y="390" as="targetPoint" />
          </mxGeometry>
        </mxCell>
        <mxCell id="Z5fmT5UCpDkTC6VNb4EY-6" value="Crear&lt;br&gt;Usuarios" style="ellipse;whiteSpace=wrap;html=1;" vertex="1" parent="1">
          <mxGeometry x="590" y="490" width="90" height="60" as="geometry" />
        </mxCell>
        <mxCell id="Z5fmT5UCpDkTC6VNb4EY-8" value="Borrar&lt;br&gt;Usuarios" style="ellipse;whiteSpace=wrap;html=1;" vertex="1" parent="1">
          <mxGeometry x="590" y="560" width="90" height="60" as="geometry" />
        </mxCell>
        <mxCell id="Z5fmT5UCpDkTC6VNb4EY-9" value="" style="edgeStyle=orthogonalEdgeStyle;rounded=0;orthogonalLoop=1;jettySize=auto;html=1;exitX=1;exitY=1;exitDx=0;exitDy=0;entryX=0;entryY=0.333;entryDx=0;entryDy=0;entryPerimeter=0;" edge="1" parent="1" source="rlRPjQ5b9loZFyzqeMn2-45" target="Z5fmT5UCpDkTC6VNb4EY-8">
          <mxGeometry relative="1" as="geometry">
            <mxPoint x="520" y="530" as="sourcePoint" />
            <mxPoint x="600" y="530" as="targetPoint" />
          </mxGeometry>
        </mxCell>
        <mxCell id="Z5fmT5UCpDkTC6VNb4EY-13" value="" style="edgeStyle=orthogonalEdgeStyle;rounded=0;orthogonalLoop=1;jettySize=auto;html=1;" edge="1" parent="1" source="Z5fmT5UCpDkTC6VNb4EY-10" target="Z5fmT5UCpDkTC6VNb4EY-12">
          <mxGeometry relative="1" as="geometry" />
        </mxCell>
        <mxCell id="Z5fmT5UCpDkTC6VNb4EY-10" value="Procesar&lt;br&gt;Rese침as" style="ellipse;whiteSpace=wrap;html=1;" vertex="1" parent="1">
          <mxGeometry x="450" y="200" width="90" height="60" as="geometry" />
        </mxCell>
        <mxCell id="Z5fmT5UCpDkTC6VNb4EY-12" value="Mostrar&lt;br&gt;Resultadios" style="ellipse;whiteSpace=wrap;html=1;" vertex="1" parent="1">
          <mxGeometry x="620" y="200" width="90" height="60" as="geometry" />
        </mxCell>
      </root>
    </mxGraphModel>
  </diagram>
</mxfile>
